mtllib cube.mtl
o Cube
v -0.5 -0.5 -0.5
v 0.5 -0.5 -0.5
v 0.5 0.5 -0.5
v -0.5 0.5 -0.5
v -0.5 -0.5 0.5
v 0.5 -0.5 0.5
v 0.5 0.5 0.5
v -0.5 0.5 0.5

vn -0.5 -0.5 -0.5
vn 0.5 -0.5 -0.5
vn 0.5 0.5 -0.5
vn -0.5 0.5 -0.5
vn -0.5 -0.5 0.5
vn 0.5 -0.5 0.5
vn 0.5 0.5 0.5
vn -0.5 0.5 0.5

vt 0 0
vt 1 0
vt 0 1
vt 1 1

f 1/1/1 2/2/2 6/4/6
f 1/1/1 6/4/6 5/3/5

f 3/1/3 4/2/4 8/4/8
f 3/1/3 8/4/8 7/3/7

f 4/1/4 1/2/1 5/4/5
f 4/1/4 5/4/5 8/3/8

f 2/1/2 3/2/3 7/4/7
f 2/1/2 7/4/7 6/3/6

f 5/1/5 6/2/6 7/4/7
f 5/1/5 7/4/7 8/3/8

f 4/1/4 3/2/3 2/4/2
f 4/1/4 2/4/2 1/3/1